<svg aria-hidden="true" style="width:0;height:0;position:absolute;overflow:hidden" xmlns="http://www.w3.org/2000/svg"><defs><symbol id="icon-307875" viewBox="0 0 32 32"><path d="M8.704.05a7.549 7.549 0 0 0-1.157.161 9.126 9.126 0 0 0-.818.204c-.815.279-.999.355-1.497.604A9.425 9.425 0 0 0 .54 6.365c-.181.518-.224.672-.335 1.233s-.133.72-.169 1.253a6.542 6.542 0 0 0 0 1.22c.035.528.058.694.166 1.25.113.566.153.714.342 1.258a8.576 8.576 0 0 0 1.069 2.138c.37.553.979 1.283 1.326 1.59.098.088.239.229.314.314.075.088.34.337.586.553a9.316 9.316 0 0 0 4.342 2.169c.551.113.684.131 1.26.171.609.04.679.04 1.283 0a7.054 7.054 0 0 0 1.253-.169c.337-.068.647-.133.687-.148 1.047-.332 1.917-.737 2.667-1.245.249-.169.465-.317.483-.325.018-.013.058.023.106.091.063.093.101.121.221.159.141.045.169.07.888.828 3.089 3.248 7.841 8.307 11.331 12.06l1.157 1.24.201-.018c.196-.015.214-.023.493-.196.564-.35 1.361-1.109 1.751-1.668.174-.249.194-.289.214-.438.013-.091.02-.184.023-.206 0-.063-1.333-1.449-2.657-2.762-1.286-1.275-2.086-2.045-4.626-4.453-2.964-2.81-4.689-4.491-5.912-5.758-.551-.571-.77-.782-.81-.782s-.058-.015-.058-.05a.518.518 0 0 0-.169-.272c-.038-.023-.025-.053.126-.277.294-.445.694-1.286.923-1.942.174-.493.221-.669.327-1.197.108-.541.131-.694.169-1.253.04-.599.04-.672 0-1.28a7.162 7.162 0 0 0-.169-1.255 9.36 9.36 0 0 0-2.151-4.335 8.798 8.798 0 0 0-.564-.596 4.514 4.514 0 0 1-.317-.317 8.951 8.951 0 0 0-.606-.576A9.34 9.34 0 0 0 11.418.223a7.034 7.034 0 0 0-1.233-.171c-.75-.058-.72-.058-1.484 0zm2.566.627a9.555 9.555 0 0 1 2.184.551c.41.156.231.111-.325-.081a7.274 7.274 0 0 0-1.167-.312 7.033 7.033 0 0 0-1.245-.169 6.682 6.682 0 0 0-1.233 0c-.518.035-.709.06-1.195.153-.317.063-.606.118-.641.126l-.063.01.063-.025C7.809.86 8.677.696 9.107.656c.159-.015.33-.033.377-.038.242-.028 1.439.01 1.786.058zm-.415.266c1.497.101 3.047.644 4.365 1.53.85.571 1.286 1.004 1.867 1.867a8.83 8.83 0 0 1 1.374 3.283c.111.543.131.689.169 1.228.038.564.038.657 0 1.208a7.567 7.567 0 0 1-.166 1.23 6.862 6.862 0 0 1-.322 1.195 9.195 9.195 0 0 1-3.525 4.586 9.192 9.192 0 0 1-2.038 1.039c-.242.083-.486.169-.541.189s-.382.093-.73.164a7.229 7.229 0 0 1-1.225.169 6.414 6.414 0 0 1-1.208 0 8.996 8.996 0 0 1-4.536-1.542c-.86-.586-1.296-1.019-1.859-1.852a9.156 9.156 0 0 1-1.386-3.293 7.095 7.095 0 0 1-.161-1.208A6.423 6.423 0 0 1 .93 9.473c.038-.541.06-.712.164-1.218a9.176 9.176 0 0 1 7.155-7.16A7.353 7.353 0 0 1 9.431.931c.327-.023.667-.038.757-.033s.39.025.667.045zM7.547.974c-.133.053-.979.342-1.019.352-.028.005.018-.02.101-.055.199-.086.87-.314.918-.312.033 0 .033.003 0 .015zm-1.235.445c-.025.023-.787.395-.765.372.03-.03.72-.38.752-.382.013 0 .018.005.013.01zm7.841.136a.654.654 0 0 1-.216-.108c0-.008.05.013.113.043.06.03.108.058.103.065zm4.338 5.049c0 .013-.013.008-.025-.013s-.025-.05-.025-.063c0-.015.013-.008.025.013s.025.048.025.063zm.193.747c-.008.02-.015.013-.015-.015-.003-.028.005-.043.013-.033.008.008.01.03.003.048zm.078.36c-.003.068-.065-.184-.065-.264 0-.035.015 0 .033.075.02.075.035.161.033.189zm.023.143c-.008.018-.013.005-.013-.03s.005-.048.013-.033a.134.134 0 0 1 0 .063zm.131 1.112c.005.325-.015.206-.03-.174-.008-.226-.005-.294.008-.189.01.091.02.254.023.362zm.02.36c-.008.025-.013.005-.013-.043s.005-.068.013-.045a.26.26 0 0 1 0 .088zm0 .39c-.005.033-.01.013-.01-.043-.003-.055.003-.081.01-.058a.341.341 0 0 1 0 .101zm-.028.415c-.01.191-.028.387-.04.435l-.025.088.013-.101c.005-.055.018-.252.028-.435.01-.181.023-.332.03-.332s.005.156-.005.345zm-.166 1.245c-.045.211-.086.39-.093.397-.015.015-.015.013.086-.501.038-.201.073-.345.078-.325a3.57 3.57 0 0 1-.07.428zm-.108.478c-.008.02-.015.013-.015-.015-.003-.028.005-.043.013-.033.008.008.01.03.003.048zm-.209.677a6.188 6.188 0 0 1-.138.375c-.023.033-.025.033-.015 0 .038-.133.254-.73.262-.722.005.005-.043.161-.108.347zm-.475 1.134a4.285 4.285 0 0 1-.194.36c-.013.013.058-.141.159-.345s.189-.365.194-.36c.005.005-.065.161-.159.345zm-.559.977c-.023.043-.07.108-.103.146s-.015.003.035-.078c.096-.148.146-.199.068-.068z"/></symbol></defs></svg>