<svg aria-hidden="true" style="position: absolute; width: 0; height: 0; overflow: hidden;" version="1.1" xmlns="http://www.w3.org/2000/svg" xmlns:xlink="http://www.w3.org/1999/xlink">
<defs>
<symbol id="icon-307875" viewBox="0 0 32 32">
<path d="M8.704 0.050c-0.491 0.038-0.687 0.065-1.157 0.161-0.312 0.065-0.679 0.156-0.818 0.204-0.815 0.279-0.999 0.355-1.497 0.604-2.204 1.102-3.872 3.004-4.692 5.346-0.181 0.518-0.224 0.672-0.335 1.233s-0.133 0.72-0.169 1.253c-0.038 0.564-0.038 0.662 0 1.22 0.035 0.528 0.058 0.694 0.166 1.25 0.113 0.566 0.153 0.714 0.342 1.258 0.284 0.818 0.581 1.411 1.069 2.138 0.37 0.553 0.979 1.283 1.326 1.59 0.098 0.088 0.239 0.229 0.314 0.314 0.075 0.088 0.34 0.337 0.586 0.553 1.24 1.099 2.712 1.834 4.342 2.169 0.551 0.113 0.684 0.131 1.26 0.171 0.609 0.040 0.679 0.040 1.283 0 0.566-0.038 0.712-0.058 1.253-0.169 0.337-0.068 0.647-0.133 0.687-0.148 1.047-0.332 1.917-0.737 2.667-1.245 0.249-0.169 0.465-0.317 0.483-0.325 0.018-0.013 0.058 0.023 0.106 0.091 0.063 0.093 0.101 0.121 0.221 0.159 0.141 0.045 0.169 0.070 0.888 0.828 3.089 3.248 7.841 8.307 11.331 12.060l1.157 1.24 0.201-0.018c0.196-0.015 0.214-0.023 0.493-0.196 0.564-0.35 1.361-1.109 1.751-1.668 0.174-0.249 0.194-0.289 0.214-0.438 0.013-0.091 0.020-0.184 0.023-0.206 0-0.063-1.333-1.449-2.657-2.762-1.286-1.275-2.086-2.045-4.626-4.453-2.964-2.81-4.689-4.491-5.912-5.758-0.551-0.571-0.77-0.782-0.81-0.782s-0.058-0.015-0.058-0.050c0-0.063-0.108-0.239-0.169-0.272-0.038-0.023-0.025-0.053 0.126-0.277 0.294-0.445 0.694-1.286 0.923-1.942 0.174-0.493 0.221-0.669 0.327-1.197 0.108-0.541 0.131-0.694 0.169-1.253 0.040-0.599 0.040-0.672 0-1.28-0.040-0.574-0.058-0.714-0.169-1.255-0.327-1.613-1.054-3.079-2.151-4.335-0.219-0.249-0.473-0.518-0.564-0.596-0.091-0.080-0.234-0.224-0.317-0.317-0.083-0.096-0.355-0.355-0.606-0.576-1.225-1.082-2.689-1.816-4.287-2.151-0.516-0.108-0.672-0.131-1.233-0.171-0.75-0.058-0.72-0.058-1.484 0zM11.27 0.677c0.775 0.103 1.477 0.282 2.184 0.551 0.41 0.156 0.231 0.111-0.325-0.081-0.443-0.153-0.652-0.209-1.167-0.312-0.553-0.113-0.702-0.133-1.245-0.169-0.569-0.038-0.662-0.038-1.233 0-0.518 0.035-0.709 0.060-1.195 0.153-0.317 0.063-0.606 0.118-0.641 0.126l-0.063 0.010 0.063-0.025c0.161-0.070 1.029-0.234 1.459-0.274 0.159-0.015 0.33-0.033 0.377-0.038 0.242-0.028 1.439 0.010 1.786 0.058zM10.855 0.943c1.497 0.101 3.047 0.644 4.365 1.53 0.85 0.571 1.286 1.004 1.867 1.867 0.684 1.011 1.122 2.053 1.374 3.283 0.111 0.543 0.131 0.689 0.169 1.228 0.038 0.564 0.038 0.657 0 1.208-0.035 0.513-0.058 0.684-0.166 1.23-0.108 0.543-0.153 0.712-0.322 1.195-0.659 1.877-1.879 3.467-3.525 4.586-0.631 0.428-1.384 0.813-2.038 1.039-0.242 0.083-0.486 0.169-0.541 0.189s-0.382 0.093-0.73 0.164c-0.548 0.111-0.704 0.133-1.225 0.169-0.546 0.038-0.644 0.038-1.208 0-1.663-0.108-3.187-0.626-4.536-1.542-0.86-0.586-1.296-1.019-1.859-1.852-0.674-0.996-1.147-2.121-1.386-3.293-0.101-0.493-0.123-0.659-0.161-1.208-0.043-0.604-0.043-0.664-0.003-1.263 0.038-0.541 0.060-0.712 0.164-1.218 0.722-3.592 3.56-6.435 7.155-7.16 0.491-0.101 0.689-0.128 1.182-0.164 0.327-0.023 0.667-0.038 0.757-0.033s0.39 0.025 0.667 0.045zM7.547 0.974c-0.133 0.053-0.979 0.342-1.019 0.352-0.028 0.005 0.018-0.020 0.101-0.055 0.199-0.086 0.87-0.314 0.918-0.312 0.033 0 0.033 0.003 0 0.015zM6.312 1.419c-0.025 0.023-0.787 0.395-0.765 0.372 0.030-0.030 0.72-0.38 0.752-0.382 0.013 0 0.018 0.005 0.013 0.010zM14.153 1.555c-0.013 0.010-0.216-0.091-0.216-0.108 0-0.008 0.050 0.013 0.113 0.043 0.060 0.030 0.108 0.058 0.103 0.065zM18.491 6.604c0 0.013-0.013 0.008-0.025-0.013s-0.025-0.050-0.025-0.063c0-0.015 0.013-0.008 0.025 0.013s0.025 0.048 0.025 0.063zM18.684 7.351c-0.008 0.020-0.015 0.013-0.015-0.015-0.003-0.028 0.005-0.043 0.013-0.033 0.008 0.008 0.010 0.030 0.003 0.048zM18.762 7.711c-0.003 0.068-0.065-0.184-0.065-0.264 0-0.035 0.015 0 0.033 0.075 0.020 0.075 0.035 0.161 0.033 0.189zM18.785 7.854c-0.008 0.018-0.013 0.005-0.013-0.030s0.005-0.048 0.013-0.033c0.005 0.018 0.005 0.048 0 0.063zM18.916 8.966c0.005 0.325-0.015 0.206-0.030-0.174-0.008-0.226-0.005-0.294 0.008-0.189 0.010 0.091 0.020 0.254 0.023 0.362zM18.936 9.326c-0.008 0.025-0.013 0.005-0.013-0.043s0.005-0.068 0.013-0.045c0.005 0.025 0.005 0.065 0 0.088zM18.936 9.716c-0.005 0.033-0.010 0.013-0.010-0.043-0.003-0.055 0.003-0.081 0.010-0.058 0.005 0.025 0.005 0.070 0 0.101zM18.908 10.131c-0.010 0.191-0.028 0.387-0.040 0.435l-0.025 0.088 0.013-0.101c0.005-0.055 0.018-0.252 0.028-0.435 0.010-0.181 0.023-0.332 0.030-0.332s0.005 0.156-0.005 0.345zM18.742 11.376c-0.045 0.211-0.086 0.39-0.093 0.397-0.015 0.015-0.015 0.013 0.086-0.501 0.038-0.201 0.073-0.345 0.078-0.325 0.005 0.023-0.028 0.214-0.070 0.428zM18.634 11.854c-0.008 0.020-0.015 0.013-0.015-0.015-0.003-0.028 0.005-0.043 0.013-0.033 0.008 0.008 0.010 0.030 0.003 0.048zM18.425 12.531c-0.063 0.184-0.126 0.352-0.138 0.375-0.023 0.033-0.025 0.033-0.015 0 0.038-0.133 0.254-0.73 0.262-0.722 0.005 0.005-0.043 0.161-0.108 0.347zM17.95 13.665c-0.093 0.184-0.179 0.345-0.194 0.36-0.013 0.013 0.058-0.141 0.159-0.345s0.189-0.365 0.194-0.36c0.005 0.005-0.065 0.161-0.159 0.345zM17.391 14.642c-0.023 0.043-0.070 0.108-0.103 0.146s-0.015 0.003 0.035-0.078c0.096-0.148 0.146-0.199 0.068-0.068z"></path>
</symbol>
</defs>
</svg>
